<?xml version="1.0" standalone="yes"?>

<svg version="1.1" viewBox="0.0 0.0 960.0 720.0" fill="none" stroke="none" stroke-linecap="square" stroke-miterlimit="10" xmlns="http://www.w3.org/2000/svg" xmlns:xlink="http://www.w3.org/1999/xlink"><clipPath id="p.0"><path d="m0 0l960.0 0l0 720.0l-960.0 0l0 -720.0z" clip-rule="nonzero"></path></clipPath><g clip-path="url(#p.0)"><path fill="#000000" fill-opacity="0.0" d="m0 0l960.0 0l0 720.0l-960.0 0z" fill-rule="nonzero"></path><path fill="#cfe2f3" d="m117.86352 50.3937l766.9921 0l0 619.21265l-766.9921 0z" fill-rule="nonzero"></path><path stroke="#000000" stroke-width="1.0" stroke-linejoin="round" stroke-linecap="butt" d="m117.86352 50.3937l766.9921 0l0 619.21265l-766.9921 0z" fill-rule="nonzero"></path><path fill="#cfe2f3" d="m117.86352 669.94226l0 -198.14172l235.71652 198.14172z" fill-rule="nonzero"></path><path stroke="#000000" stroke-width="1.0" stroke-linejoin="round" stroke-linecap="butt" d="m117.86352 669.94226l0 -198.14172l235.71652 198.14172z" fill-rule="nonzero"></path><path fill="#000000" fill-opacity="0.0" d="m175.94226 519.62994l194.74014 -468.91342" fill-rule="nonzero"></path><path stroke="#000000" stroke-width="1.0" stroke-linejoin="round" stroke-linecap="butt" d="m175.94226 519.62994l194.74014 -468.91342" fill-rule="nonzero"></path><path fill="#000000" fill-opacity="0.0" d="m295.51706 621.2677l589.3229 -180.22046" fill-rule="nonzero"></path><path stroke="#000000" stroke-width="1.0" stroke-linejoin="round" stroke-linecap="butt" d="m295.51706 621.2677l589.3229 -180.22046" fill-rule="nonzero"></path><path fill="#000000" fill-opacity="0.0" d="m136.65355 119.91601l155.43306 0l0 57.385826l-155.43306 0z" fill-rule="nonzero"></path><path fill="#000000" d="m155.52855 157.94913l14.765625 0l0 -9.09375q0 -2.4375 -0.3125 -3.203125q-0.234375 -0.59375 -0.984375 -1.015625q-1.0 -0.5625 -2.125 -0.5625l-1.125 0l0 -0.859375l13.59375 0l0 0.859375l-1.125 0q-1.125 0 -2.140625 0.546875q-0.75 0.375 -1.015625 1.140625q-0.265625 0.75 -0.265625 3.09375l0 20.515625q0 2.40625 0.296875 3.1875q0.234375 0.578125 0.96875 1.0q1.03125 0.5625 2.15625 0.5625l1.125 0l0 0.875l-13.59375 0l0 -0.875l1.125 0q1.9375 0 2.828125 -1.140625q0.59375 -0.75 0.59375 -3.609375l0 -9.6875l-14.765625 0l0 9.6875q0 2.40625 0.296875 3.1875q0.234375 0.578125 0.984375 1.0q1.015625 0.5625 2.140625 0.5625l1.140625 0l0 0.875l-13.609375 0l0 -0.875l1.125 0q1.96875 0 2.859375 -1.140625q0.5625 -0.75 0.5625 -3.609375l0 -20.515625q0 -2.4375 -0.3125 -3.203125q-0.234375 -0.59375 -0.953125 -1.015625q-1.03125 -0.5625 -2.15625 -0.5625l-1.125 0l0 -0.859375l13.609375 0l0 0.859375l-1.140625 0q-1.125 0 -2.140625 0.546875q-0.71875 0.375 -1.0 1.140625q-0.28125 0.75 -0.28125 3.09375l0 9.09375zm32.570312 -5.0625l0 4.828125q2.703125 -4.828125 5.53125 -4.828125q1.296875 0 2.140625 0.796875q0.84375 0.78125 0.84375 1.8125q0 0.90625 -0.609375 1.546875q-0.609375 0.625 -1.453125 0.625q-0.828125 0 -1.84375 -0.796875q-1.015625 -0.8125 -1.515625 -0.8125q-0.421875 0 -0.90625 0.46875q-1.0625 0.953125 -2.1875 3.15625l0 10.296875q0 1.78125 0.453125 2.6875q0.296875 0.640625 1.0625 1.0625q0.78125 0.421875 2.234375 0.421875l0 0.84375l-10.984375 0l0 -0.84375q1.640625 0 2.4375 -0.515625q0.578125 -0.375 0.8125 -1.203125q0.125 -0.390625 0.125 -2.265625l0 -8.328125q0 -3.75 -0.15625 -4.453125q-0.15625 -0.71875 -0.5625 -1.046875q-0.40625 -0.328125 -1.015625 -0.328125q-0.734375 0 -1.640625 0.34375l-0.234375 -0.84375l6.484375 -2.625l0.984375 0zm21.875 19.015625q-3.3125 2.546875 -4.15625 2.953125q-1.265625 0.59375 -2.6875 0.59375q-2.234375 0 -3.671875 -1.53125q-1.4375 -1.53125 -1.4375 -4.015625q0 -1.5625 0.703125 -2.71875q0.953125 -1.59375 3.328125 -3.0q2.390625 -1.40625 7.921875 -3.421875l0 -0.84375q0 -3.203125 -1.03125 -4.390625q-1.015625 -1.203125 -2.953125 -1.203125q-1.484375 0 -2.34375 0.796875q-0.890625 0.796875 -0.890625 1.828125l0.046875 1.359375q0 1.078125 -0.5625 1.671875q-0.546875 0.578125 -1.4375 0.578125q-0.859375 0 -1.421875 -0.609375q-0.546875 -0.609375 -0.546875 -1.671875q0 -2.015625 2.0625 -3.703125q2.0625 -1.6875 5.796875 -1.6875q2.859375 0 4.6875 0.96875q1.375 0.71875 2.03125 2.265625q0.421875 1.015625 0.421875 4.125l0 7.296875q0 3.0625 0.109375 3.765625q0.125 0.6875 0.390625 0.921875q0.28125 0.234375 0.625 0.234375q0.375 0 0.65625 -0.171875q0.5 -0.296875 1.90625 -1.703125l0 1.3125q-2.625 3.515625 -5.015625 3.515625q-1.15625 0 -1.84375 -0.796875q-0.671875 -0.796875 -0.6875 -2.71875zm0 -1.53125l0 -8.171875q-3.546875 1.40625 -4.578125 1.984375q-1.84375 1.03125 -2.640625 2.15625q-0.796875 1.125 -0.796875 2.46875q0 1.6875 1.0 2.796875q1.015625 1.109375 2.328125 1.109375q1.78125 0 4.6875 -2.34375zm15.3984375 -12.9375q3.765625 -4.546875 7.1875 -4.546875q1.765625 0 3.03125 0.890625q1.265625 0.875 2.015625 2.890625q0.515625 1.40625 0.515625 4.3125l0 9.15625q0 2.046875 0.328125 2.765625q0.25 0.59375 0.828125 0.921875q0.578125 0.328125 2.125 0.328125l0 0.84375l-10.625 0l0 -0.84375l0.453125 0q1.5 0 2.09375 -0.453125q0.59375 -0.46875 0.828125 -1.359375q0.09375 -0.34375 0.09375 -2.203125l0 -8.78125q0 -2.9375 -0.765625 -4.25q-0.75 -1.328125 -2.5625 -1.328125q-2.78125 0 -5.546875 3.046875l0 11.3125q0 2.1875 0.25 2.703125q0.328125 0.671875 0.90625 1.0q0.578125 0.3125 2.328125 0.3125l0 0.84375l-10.609375 0l0 -0.84375l0.46875 0q1.640625 0 2.203125 -0.828125q0.578125 -0.84375 0.578125 -3.1875l0 -7.96875q0 -3.859375 -0.171875 -4.703125q-0.171875 -0.84375 -0.546875 -1.140625q-0.359375 -0.3125 -0.96875 -0.3125q-0.65625 0 -1.5625 0.34375l-0.359375 -0.84375l6.46875 -2.625l1.015625 0l0 4.546875zm29.90625 14.46875q-3.3125 2.546875 -4.15625 2.953125q-1.265625 0.59375 -2.6875 0.59375q-2.234375 0 -3.671875 -1.53125q-1.4375 -1.53125 -1.4375 -4.015625q0 -1.5625 0.703125 -2.71875q0.953125 -1.59375 3.328125 -3.0q2.390625 -1.40625 7.921875 -3.421875l0 -0.84375q0 -3.203125 -1.03125 -4.390625q-1.015625 -1.203125 -2.953125 -1.203125q-1.484375 0 -2.34375 0.796875q-0.890625 0.796875 -0.890625 1.828125l0.046875 1.359375q0 1.078125 -0.5625 1.671875q-0.546875 0.578125 -1.4375 0.578125q-0.859375 0 -1.421875 -0.609375q-0.546875 -0.609375 -0.546875 -1.671875q0 -2.015625 2.0625 -3.703125q2.0625 -1.6875 5.796875 -1.6875q2.859375 0 4.6874847 0.96875q1.375 0.71875 2.03125 2.265625q0.421875 1.015625 0.421875 4.125l0 7.296875q0 3.0625 0.109375 3.765625q0.125 0.6875 0.390625 0.921875q0.28125 0.234375 0.625 0.234375q0.375 0 0.65625 -0.171875q0.5 -0.296875 1.90625 -1.703125l0 1.3125q-2.625 3.515625 -5.015625 3.515625q-1.15625 0 -1.8437347 -0.796875q-0.671875 -0.796875 -0.6875 -2.71875zm0 -1.53125l0 -8.171875q-3.546875 1.40625 -4.578125 1.984375q-1.84375 1.03125 -2.640625 2.15625q-0.796875 1.125 -0.796875 2.46875q0 1.6875 1.0 2.796875q1.015625 1.109375 2.328125 1.109375q1.78125 0 4.6875 -2.34375z" fill-rule="nonzero"></path><path fill="#000000" fill-opacity="0.0" d="m662.7769 532.9055l147.1496 0l0 57.385803l-147.1496 0z" fill-rule="nonzero"></path><path fill="#000000" d="m681.6519 570.93866l14.765625 0l0 -9.09375q0 -2.4375 -0.3125 -3.203125q-0.234375 -0.59375 -0.984375 -1.015625q-1.0 -0.5625 -2.125 -0.5625l-1.125 0l0 -0.859375l13.59375 0l0 0.859375l-1.125 0q-1.125 0 -2.140625 0.546875q-0.75 0.375 -1.015625 1.140625q-0.265625 0.75 -0.265625 3.09375l0 20.515625q0 2.40625 0.296875 3.1875q0.234375 0.578125 0.96875 1.0q1.03125 0.5625 2.15625 0.5625l1.125 0l0 0.875l-13.59375 0l0 -0.875l1.125 0q1.9375 0 2.828125 -1.140625q0.59375 -0.75 0.59375 -3.609375l0 -9.6875l-14.765625 0l0 9.6875q0 2.40625 0.296875 3.1875q0.234375 0.578125 0.984375 1.0q1.015625 0.5625 2.140625 0.5625l1.140625 0l0 0.875l-13.609375 0l0 -0.875l1.125 0q1.96875 0 2.859375 -1.140625q0.5625 -0.75 0.5625 -3.609375l0 -20.515625q0 -2.4375 -0.3125 -3.203125q-0.234375 -0.59375 -0.953125 -1.015625q-1.03125 -0.5625 -2.15625 -0.5625l-1.125 0l0 -0.859375l13.609375 0l0 0.859375l-1.140625 0q-1.125 0 -2.140625 0.546875q-0.71875 0.375 -1.0 1.140625q-0.28125 0.75 -0.28125 3.09375l0 9.09375zm32.570312 -5.0625l0 4.828125q2.703125 -4.828125 5.53125 -4.828125q1.296875 0 2.140625 0.796875q0.84375 0.78125 0.84375 1.8125q0 0.90625 -0.609375 1.546875q-0.609375 0.625 -1.453125 0.625q-0.828125 0 -1.84375 -0.796875q-1.015625 -0.8125 -1.515625 -0.8125q-0.421875 0 -0.90625 0.46875q-1.0625 0.953125 -2.1875 3.15625l0 10.296875q0 1.78125 0.453125 2.6875q0.296875 0.640625 1.0625 1.0625q0.78125 0.421875 2.234375 0.421875l0 0.84375l-10.984375 0l0 -0.84375q1.640625 0 2.4375 -0.515625q0.578125 -0.375 0.8125 -1.203125q0.125 -0.390625 0.125 -2.265625l0 -8.328125q0 -3.75 -0.15625 -4.453125q-0.15625 -0.71875 -0.5625 -1.046875q-0.40625 -0.328125 -1.015625 -0.328125q-0.734375 0 -1.640625 0.34375l-0.234375 -0.84375l6.484375 -2.625l0.984375 0zm21.875 19.015625q-3.3125 2.546875 -4.15625 2.953125q-1.265625 0.59375 -2.6875 0.59375q-2.234375 0 -3.671875 -1.53125q-1.4375 -1.53125 -1.4375 -4.015625q0 -1.5625 0.703125 -2.71875q0.953125 -1.59375 3.328125 -3.0q2.390625 -1.40625 7.921875 -3.421875l0 -0.84375q0 -3.203125 -1.03125 -4.390625q-1.015625 -1.203125 -2.953125 -1.203125q-1.484375 0 -2.34375 0.796875q-0.890625 0.796875 -0.890625 1.828125l0.046875 1.359375q0 1.078125 -0.5625 1.671875q-0.546875 0.578125 -1.4375 0.578125q-0.859375 0 -1.421875 -0.609375q-0.546875 -0.609375 -0.546875 -1.671875q0 -2.015625 2.0625 -3.703125q2.0625 -1.6875 5.796875 -1.6875q2.859375 0 4.6875 0.96875q1.375 0.71875 2.03125 2.265625q0.421875 1.015625 0.421875 4.125l0 7.296875q0 3.0625 0.109375 3.765625q0.125 0.6875 0.390625 0.921875q0.28125 0.234375 0.625 0.234375q0.375 0 0.65625 -0.171875q0.5 -0.296875 1.90625 -1.703125l0 1.3125q-2.625 3.515625 -5.015625 3.515625q-1.15625 0 -1.84375 -0.796875q-0.671875 -0.796875 -0.6875 -2.71875zm0 -1.53125l0 -8.171875q-3.546875 1.40625 -4.578125 1.984375q-1.84375 1.03125 -2.640625 2.15625q-0.796875 1.125 -0.796875 2.46875q0 1.6875 1.0 2.796875q1.015625 1.109375 2.328125 1.109375q1.78125 0 4.6875 -2.34375zm15.3984375 -12.9375q3.765625 -4.546875 7.1875 -4.546875q1.765625 0 3.03125 0.890625q1.265625 0.875 2.015625 2.890625q0.515625 1.40625 0.515625 4.3125l0 9.15625q0 2.046875 0.328125 2.765625q0.25 0.59375 0.828125 0.921875q0.578125 0.328125 2.125 0.328125l0 0.84375l-10.625 0l0 -0.84375l0.453125 0q1.5 0 2.09375 -0.453125q0.59375 -0.46875 0.828125 -1.359375q0.09375 -0.34375 0.09375 -2.203125l0 -8.78125q0 -2.9375 -0.765625 -4.25q-0.75 -1.328125 -2.5625 -1.328125q-2.78125 0 -5.546875 3.046875l0 11.3125q0 2.1875 0.25 2.703125q0.328125 0.671875 0.90625 1.0q0.578125 0.3125 2.328125 0.3125l0 0.84375l-10.609375 0l0 -0.84375l0.46875 0q1.640625 0 2.203125 -0.828125q0.578125 -0.84375 0.578125 -3.1875l0 -7.96875q0 -3.859375 -0.171875 -4.703125q-0.171875 -0.84375 -0.546875 -1.140625q-0.359375 -0.3125 -0.96875 -0.3125q-0.65625 0 -1.5625 0.34375l-0.359375 -0.84375l6.46875 -2.625l1.015625 0l0 4.546875zm29.90625 14.46875q-3.3125 2.546875 -4.15625 2.953125q-1.265625 0.59375 -2.6875 0.59375q-2.234375 0 -3.671875 -1.53125q-1.4375 -1.53125 -1.4375 -4.015625q0 -1.5625 0.703125 -2.71875q0.953125 -1.59375 3.328125 -3.0q2.390625 -1.40625 7.921875 -3.421875l0 -0.84375q0 -3.203125 -1.03125 -4.390625q-1.015625 -1.203125 -2.953125 -1.203125q-1.484375 0 -2.34375 0.796875q-0.890625 0.796875 -0.890625 1.828125l0.046875 1.359375q0 1.078125 -0.5625 1.671875q-0.546875 0.578125 -1.4375 0.578125q-0.859375 0 -1.421875 -0.609375q-0.546875 -0.609375 -0.546875 -1.671875q0 -2.015625 2.0625 -3.703125q2.0625 -1.6875 5.796875 -1.6875q2.859375 0 4.6875 0.96875q1.375 0.71875 2.03125 2.265625q0.421875 1.015625 0.421875 4.125l0 7.296875q0 3.0625 0.109375 3.765625q0.125 0.6875 0.390625 0.921875q0.28125 0.234375 0.625 0.234375q0.375 0 0.65625 -0.171875q0.5 -0.296875 1.90625 -1.703125l0 1.3125q-2.625 3.515625 -5.015625 3.515625q-1.15625 0 -1.84375 -0.796875q-0.671875 -0.796875 -0.6875 -2.71875zm0 -1.53125l0 -8.171875q-3.546875 1.40625 -4.578125 1.984375q-1.84375 1.03125 -2.640625 2.15625q-0.796875 1.125 -0.796875 2.46875q0 1.6875 1.0 2.796875q1.015625 1.109375 2.328125 1.109375q1.78125 0 4.6875 -2.34375z" fill-rule="nonzero"></path><path fill="#000000" fill-opacity="0.0" d="m127.68767 177.30183l176.37794 0l0 57.385834l-176.37794 0z" fill-rule="nonzero"></path><path fill="#000000" d="m154.56267 219.98308q-0.359375 1.875 -1.40625 3.515625q-1.03125 1.640625 -2.46875 1.640625q-2.59375 0 -2.59375 -4.75l0 -8.125l-0.09375 0l-7.828125 12.4375l-3.921875 0l11.515625 -18.125q0 -0.15625 0.015625 -0.625q0.03125 -0.484375 0.03125 -0.8125q0 -4.640625 -2.359375 -4.640625q-1.96875 0 -2.53125 2.609375l-0.828125 -0.28125q0.71875 -5.25 3.515625 -5.25q1.078125 0 1.78125 0.59375q0.703125 0.578125 1.015625 1.640625q0.328125 1.046875 0.4375 1.96875q0.125 0.921875 0.15625 2.203125l0.40625 13.71875q0.046875 1.40625 0.140625 2.25q0.09375 0.828125 0.546875 1.546875q0.46875 0.71875 1.28125 0.71875q1.078125 0 1.6875 -1.078125q0.625 -1.078125 0.625 -1.484375l0.875 0.328125z" fill-rule="nonzero"></path><path fill="#000000" d="m169.8014 237.42058l0 2.28125l-12.78125 0q-0.015625 -0.859375 0.28125 -1.640625q0.484375 -1.3125 1.5625 -2.578125q1.078125 -1.265625 3.109375 -2.921875q3.140625 -2.59375 4.25 -4.09375q1.109375 -1.515625 1.109375 -2.859375q0 -1.40625 -1.015625 -2.375q-1.0 -0.96875 -2.625 -0.96875q-1.703125 0 -2.734375 1.03125q-1.03125 1.015625 -1.046875 2.84375l-2.4375 -0.25q0.25 -2.734375 1.875 -4.15625q1.640625 -1.4375 4.40625 -1.4375q2.78125 0 4.390625 1.546875q1.625 1.53125 1.625 3.8125q0 1.171875 -0.484375 2.296875q-0.46875 1.109375 -1.5625 2.359375q-1.09375 1.234375 -3.65625 3.390625q-2.140625 1.796875 -2.75 2.4375q-0.59375 0.640625 -1.0 1.28125l9.484375 0z" fill-rule="nonzero"></path><path fill="#000000" d="m203.3019 212.1862l-18.96875 8.09375l0 -3.484375l15.015625 -6.234375l-15.015625 -6.171875l0 -3.5l18.96875 8.015625l0 3.28125zm23.359375 0l-18.96875 8.09375l0 -3.484375l15.015625 -6.234375l-15.015625 -6.171875l0 -3.5l18.96875 8.015625l0 3.28125z" fill-rule="nonzero"></path><path fill="#000000" d="m257.85266 219.98308q-0.359375 1.875 -1.40625 3.515625q-1.0312347 1.640625 -2.4687347 1.640625q-2.59375 0 -2.59375 -4.75l0 -8.125l-0.09375 0l-7.828125 12.4375l-3.921875 0l11.515625 -18.125q0 -0.15625 0.015625 -0.625q0.03125 -0.484375 0.03125 -0.8125q0 -4.640625 -2.359375 -4.640625q-1.96875 0 -2.53125 2.609375l-0.828125 -0.28125q0.71875 -5.25 3.515625 -5.25q1.078125 0 1.78125 0.59375q0.703125 0.578125 1.015625 1.640625q0.328125 1.046875 0.4375 1.96875q0.125 0.921875 0.15625 2.203125l0.40625 13.71875q0.046875 1.40625 0.140625 2.25q0.09375 0.828125 0.546875 1.546875q0.46875 0.71875 1.28125 0.71875q1.078125 0 1.6874847 -1.078125q0.625 -1.078125 0.625 -1.484375l0.875 0.328125z" fill-rule="nonzero"></path><path fill="#000000" d="m269.56015 239.70183l-2.375 0l0 -15.125q-0.859375 0.828125 -2.25 1.640625q-1.390625 0.8125 -2.5 1.21875l0 -2.296875q2.0 -0.921875 3.484375 -2.25q1.484375 -1.34375 2.109375 -2.59375l1.53125 0l0 19.40625z" fill-rule="nonzero"></path><path fill="#000000" fill-opacity="0.0" d="m671.08923 586.0866l147.1496 0l0 57.385803l-147.1496 0z" fill-rule="nonzero"></path><path fill="#000000" d="m697.96423 628.7679q-0.359375 1.875 -1.40625 3.515625q-1.03125 1.640625 -2.46875 1.640625q-2.59375 0 -2.59375 -4.75l0 -8.125l-0.09375 0l-7.828125 12.4375l-3.921875 0l11.515625 -18.125q0 -0.15625 0.015625 -0.625q0.03125 -0.484375 0.03125 -0.8125q0 -4.640625 -2.359375 -4.640625q-1.96875 0 -2.53125 2.609375l-0.828125 -0.28125q0.71875 -5.25 3.515625 -5.25q1.078125 0 1.78125 0.59375q0.703125 0.578125 1.015625 1.640625q0.328125 1.046875 0.4375 1.96875q0.125 0.921875 0.15625 2.203125l0.40625 13.71875q0.046875 1.40625 0.140625 2.25q0.09375 0.828125 0.546875 1.546875q0.46875 0.71875 1.28125 0.71875q1.078125 0 1.6875 -1.078125q0.625 -1.078125 0.625 -1.484375l0.875 0.328125z" fill-rule="nonzero"></path><path fill="#000000" d="m709.67175 648.48663l-2.375 0l0 -15.125q-0.859375 0.828125 -2.25 1.640625q-1.390625 0.8125 -2.5 1.21875l0 -2.296875q2.0 -0.921875 3.484375 -2.25q1.484375 -1.34375 2.109375 -2.59375l1.53125 0l0 19.40625z" fill-rule="nonzero"></path><path fill="#000000" d="m735.5902 620.971l-18.96875 8.09375l0 -3.484375l15.015625 -6.234375l-15.015625 -6.171875l0 -3.5l18.96875 8.015625l0 3.28125zm23.359375 0l-18.96875 8.09375l0 -3.484375l15.015625 -6.234375l-15.015625 -6.171875l0 -3.5l18.96875 8.015625l0 3.28125z" fill-rule="nonzero"></path><path fill="#000000" d="m790.141 628.7679q-0.359375 1.875 -1.40625 3.515625q-1.03125 1.640625 -2.46875 1.640625q-2.59375 0 -2.59375 -4.75l0 -8.125l-0.09375 0l-7.828125 12.4375l-3.921875 0l11.515625 -18.125q0 -0.15625 0.015625 -0.625q0.03125 -0.484375 0.03125 -0.8125q0 -4.640625 -2.359375 -4.640625q-1.96875 0 -2.53125 2.609375l-0.828125 -0.28125q0.71875 -5.25 3.515625 -5.25q1.078125 0 1.78125 0.59375q0.703125 0.578125 1.015625 1.640625q0.328125 1.046875 0.4375 1.96875q0.125 0.921875 0.15625 2.203125l0.40625 13.71875q0.046875 1.40625 0.140625 2.25q0.09375 0.828125 0.546875 1.546875q0.46875 0.71875 1.28125 0.71875q1.078125 0 1.6875 -1.078125q0.625 -1.078125 0.625 -1.484375l0.875 0.328125z" fill-rule="nonzero"></path><path fill="#000000" d="m805.3797 646.2054l0 2.28125l-12.78125 0q-0.015625 -0.859375 0.28125 -1.640625q0.484375 -1.3125 1.5625 -2.578125q1.078125 -1.265625 3.109375 -2.921875q3.140625 -2.59375 4.25 -4.09375q1.109375 -1.515625 1.109375 -2.859375q0 -1.40625 -1.015625 -2.375q-1.0 -0.96875 -2.625 -0.96875q-1.703125 0 -2.734375 1.03125q-1.03125 1.015625 -1.046875 2.84375l-2.4375 -0.25q0.25 -2.734375 1.875 -4.15625q1.640625 -1.4375 4.40625 -1.4375q2.78125 0 4.390625 1.546875q1.625 1.53125 1.625 3.8125q0 1.171875 -0.484375 2.296875q-0.46875 1.109375 -1.5625 2.359375q-1.09375 1.234375 -3.65625 3.390625q-2.140625 1.796875 -2.75 2.4375q-0.59375 0.640625 -1.0 1.28125l9.484375 0z" fill-rule="nonzero"></path><path fill="#000000" fill-opacity="0.0" d="m532.95276 224.11285l107.62207 0l0 57.385834l-107.62207 0z" fill-rule="nonzero"></path><path fill="#000000" d="m574.39026 279.19287l-8.484375 0l-10.75 -14.859375q-1.203125 0.046875 -1.953125 0.046875q-0.296875 0 -0.65625 -0.015625q-0.34375 -0.015625 -0.71875 -0.03125l0 9.234375q0 3.0 0.65625 3.71875q0.890625 1.03125 2.671875 1.03125l1.234375 0l0 0.875l-13.609375 0l0 -0.875l1.1875 0q2.015625 0 2.890625 -1.3125q0.484375 -0.71875 0.484375 -3.4375l0 -20.531265q0 -3.0 -0.65625 -3.734375q-0.90625 -1.03125 -2.71875 -1.03125l-1.1875 0l0 -0.859375l11.578125 0q5.0625 0 7.453125 0.734375q2.40625 0.734375 4.078125 2.71875q1.6875 1.984375 1.6875 4.71875q0 2.9375153 -1.921875 5.0937653q-1.90625 2.15625 -5.90625 3.046875l6.5625 9.109375q2.25 3.140625 3.859375 4.171875q1.625 1.03125 4.21875 1.3125l0 0.875zm-22.5625 -16.34375q0.4375 0 0.765625 0.015625q0.328125 0.015625 0.546875 0.015625q4.546875 0 6.84375 -1.96875q2.3125 -1.96875 2.3125 -5.0156403q0 -2.984375 -1.859375 -4.84375q-1.859375 -1.859375 -4.9375 -1.859375q-1.359375 0 -3.671875 0.4375l0 13.218765zm34.140625 -5.765625q4.875 0 7.828125 3.703125q2.515625 3.171875 2.515625 7.265625q0 2.890625 -1.390625 5.84375q-1.375 2.953125 -3.8125 4.453125q-2.421875 1.5 -5.390625 1.5q-4.859375 0 -7.71875 -3.875q-2.40625 -3.25 -2.40625 -7.3125q0 -2.953125 1.453125 -5.859375q1.46875 -2.921875 3.859375 -4.3125q2.390625 -1.40625 5.0625 -1.40625zm-0.71875 1.53125q-1.25 0 -2.5 0.734375q-1.25 0.734375 -2.03125 2.59375q-0.765625 1.84375 -0.765625 4.75q0 4.6875 1.859375 8.09375q1.859375 3.390625 4.90625 3.390625q2.28125 0 3.75 -1.875q1.484375 -1.875 1.484375 -6.4375q0 -5.71875 -2.46875 -9.0q-1.65625 -2.25 -4.234375 -2.25zm20.53125 -12.750015l0 15.70314q2.59375 -2.859375 4.109375 -3.671875q1.53125 -0.8125 3.0625 -0.8125q1.828125 0 3.140625 1.015625q1.3125 1.0 1.9375 3.15625q0.453125 1.5 0.453125 5.484375l0 7.59375q0 2.046875 0.328125 2.796875q0.234375 0.5625 0.796875 0.890625q0.5625 0.328125 2.0625 0.328125l0 0.84375l-10.546875 0l0 -0.84375l0.484375 0q1.5 0 2.078125 -0.453125q0.59375 -0.46875 0.828125 -1.359375q0.078125 -0.375 0.078125 -2.203125l0 -7.59375q0 -3.515625 -0.375 -4.609375q-0.359375 -1.109375 -1.15625 -1.65625q-0.796875 -0.546875 -1.921875 -0.546875q-1.140625 0 -2.390625 0.609375q-1.234375 0.609375 -2.96875 2.453125l0 11.34375q0 2.203125 0.234375 2.75q0.25 0.53125 0.921875 0.90625q0.671875 0.359375 2.3125 0.359375l0 0.84375l-10.640625 0l0 -0.84375q1.421875 0 2.25 -0.453125q0.46875 -0.234375 0.75 -0.890625q0.28125 -0.65625 0.28125 -2.671875l0 -19.42189q0 -3.6875 -0.1875 -4.53125q-0.171875 -0.84375 -0.53125 -1.140625q-0.359375 -0.3125 -0.96875 -0.3125q-0.5 0 -1.59375 0.375l-0.328125 -0.8125l6.421875 -2.625l1.078125 0z" fill-rule="nonzero"></path><path fill="#000000" fill-opacity="0.0" d="m370.6824 303.5433l491.96854 0l0 57.385834l-491.96854 0z" fill-rule="nonzero"></path><path fill="#000000" d="m397.5574 346.22455q-0.359375 1.875 -1.40625 3.515625q-1.03125 1.640625 -2.46875 1.640625q-2.59375 0 -2.59375 -4.75l0 -8.125l-0.09375 0l-7.828125 12.4375l-3.921875 0l11.515625 -18.125q0 -0.15625 0.015625 -0.625q0.03125 -0.484375 0.03125 -0.8125q0 -4.640625 -2.359375 -4.640625q-1.96875 0 -2.53125 2.609375l-0.828125 -0.28125q0.71875 -5.25 3.515625 -5.25q1.078125 0 1.78125 0.59375q0.703125 0.578125 1.015625 1.640625q0.328125 1.046875 0.4375 1.96875q0.125 0.921875 0.15625 2.203125l0.40625 13.71875q0.046875 1.40625 0.140625 2.25q0.09375 0.828125 0.546875 1.546875q0.46875 0.71875 1.28125 0.71875q1.078125 0 1.6875 -1.078125q0.625 -1.078125 0.625 -1.484375l0.875 0.328125z" fill-rule="nonzero"></path><path fill="#000000" d="m409.2649 365.9433l-2.375 0l0 -15.125q-0.859375 0.828125 -2.25 1.640625q-1.390625 0.8125 -2.5 1.21875l0 -2.296875q2.0 -0.921875 3.484375 -2.25q1.484375 -1.34375 2.109375 -2.59375l1.53125 0l0 19.40625z" fill-rule="nonzero"></path><path fill="#000000" d="m415.73022 340.0683l0 -4.015625q2.0625 -2.34375 5.421875 -2.34375q1.171875 0 2.453125 0.34375q1.296875 0.34375 3.6875 1.359375q1.34375 0.5625 2.015625 0.75q0.671875 0.171875 1.359375 0.171875q1.265625 0 2.625 -0.765625q1.359375 -0.765625 2.421875 -1.90625l0 4.140625q-1.25 1.171875 -2.53125 1.703125q-1.28125 0.515625 -2.890625 0.515625q-1.171875 0 -2.234375 -0.265625q-1.0625 -0.28125 -3.375 -1.3125q-2.3125 -1.03125 -3.859375 -1.03125q-1.25 0 -2.359375 0.53125q-1.09375 0.53125 -2.734375 2.125z" fill-rule="nonzero"></path><path fill="#000000" d="m466.37476 346.22455q-0.359375 1.875 -1.40625 3.515625q-1.03125 1.640625 -2.46875 1.640625q-2.59375 0 -2.59375 -4.75l0 -8.125l-0.09375 0l-7.828125 12.4375l-3.921875 0l11.515625 -18.125q0 -0.15625 0.015625 -0.625q0.03125 -0.484375 0.03125 -0.8125q0 -4.640625 -2.359375 -4.640625q-1.96875 0 -2.53125 2.609375l-0.828125 -0.28125q0.71875 -5.25 3.515625 -5.25q1.078125 0 1.78125 0.59375q0.703125 0.578125 1.015625 1.640625q0.328125 1.046875 0.4375 1.96875q0.125 0.921875 0.15625 2.203125l0.40625 13.71875q0.046875 1.40625 0.140625 2.25q0.09375 0.828125 0.546875 1.546875q0.46875 0.71875 1.28125 0.71875q1.078125 0 1.6875 -1.078125q0.625 -1.078125 0.625 -1.484375l0.875 0.328125z" fill-rule="nonzero"></path><path fill="#000000" d="m481.6135 363.66205l0 2.28125l-12.78125 0q-0.015625 -0.859375 0.28125 -1.640625q0.484375 -1.3125 1.5625 -2.578125q1.078125 -1.265625 3.109375 -2.921875q3.140625 -2.59375 4.25 -4.09375q1.109375 -1.515625 1.109375 -2.859375q0 -1.40625 -1.015625 -2.375q-1.0 -0.96875 -2.625 -0.96875q-1.703125 0 -2.734375 1.03125q-1.03125 1.015625 -1.046875 2.84375l-2.4375 -0.25q0.25 -2.734375 1.875 -4.15625q1.640625 -1.4375 4.40625 -1.4375q2.78125 0 4.390625 1.546875q1.625 1.53125 1.625 3.8125q0 1.171875 -0.484375 2.296875q-0.46875 1.109375 -1.5625 2.359375q-1.09375 1.234375 -3.65625 3.390625q-2.140625 1.796875 -2.75 2.4375q-0.59375 0.640625 -1.0 1.28125l9.484375 0z" fill-rule="nonzero"></path><path fill="#000000" d="m497.52023 350.9433l0 -4.0l4.0 0l0 4.0q0 2.203125 -0.78125 3.5625q-0.78125 1.359375 -2.484375 2.109375l-0.96875 -1.515625q1.109375 -0.484375 1.625 -1.4375q0.53125 -0.9375 0.59375 -2.71875l-1.984375 0z" fill-rule="nonzero"></path><path fill="#000000" d="m534.0593 346.22455q-0.359375 1.875 -1.40625 3.515625q-1.03125 1.640625 -2.46875 1.640625q-2.59375 0 -2.59375 -4.75l0 -8.125l-0.09375 0l-7.828125 12.4375l-3.921875 0l11.515625 -18.125q0 -0.15625 0.015625 -0.625q0.03125 -0.484375 0.03125 -0.8125q0 -4.640625 -2.359375 -4.640625q-1.96875 0 -2.53125 2.609375l-0.828125 -0.28125q0.71875 -5.25 3.515625 -5.25q1.078125 0 1.78125 0.59375q0.703125 0.578125 1.015625 1.640625q0.328125 1.046875 0.4375 1.96875q0.125 0.921875 0.15625 2.203125l0.40625 13.71875q0.046875 1.40625 0.140625 2.25q0.09375 0.828125 0.546875 1.546875q0.46875 0.71875 1.28125 0.71875q1.078125 0 1.6875 -1.078125q0.625 -1.078125 0.625 -1.484375l0.875 0.328125z" fill-rule="nonzero"></path><path fill="#000000" d="m545.7668 365.9433l-2.375 0l0 -15.125q-0.859375 0.828125 -2.25 1.640625q-1.390625 0.8125 -2.5 1.21875l0 -2.296875q2.0 -0.921875 3.484375 -2.25q1.484375 -1.34375 2.109375 -2.59375l1.53125 0l0 19.40625z" fill-rule="nonzero"></path><path fill="#000000" d="m575.24756 348.36517q-2.75 2.125 -3.453125 2.453125q-1.0625 0.5 -2.25 0.5q-1.859375 0 -3.0625 -1.265625q-1.203125 -1.28125 -1.203125 -3.34375q0 -1.3125 0.59375 -2.265625q0.796875 -1.328125 2.78125 -2.5q1.984375 -1.171875 6.59375 -2.859375l0 -0.703125q0 -2.671875 -0.859375 -3.671875q-0.84375 -1.0 -2.46875 -1.0q-1.21875 0 -1.953125 0.671875q-0.734375 0.65625 -0.734375 1.515625l0.03125 1.140625q0 0.890625 -0.453125 1.390625q-0.453125 0.484375 -1.203125 0.484375q-0.71875 0 -1.1875 -0.5q-0.453125 -0.515625 -0.453125 -1.390625q0 -1.6875 1.71875 -3.09375q1.71875 -1.40625 4.828125 -1.40625q2.375 0 3.90625 0.796875q1.15625 0.609375 1.703125 1.90625q0.34375 0.828125 0.34375 3.4375l0 6.0625q0 2.5625 0.09375 3.140625q0.109375 0.578125 0.328125 0.78125q0.21875 0.1875 0.515625 0.1875q0.3125 0 0.546875 -0.140625q0.40625 -0.25 1.578125 -1.421875l0 1.09375q-2.1875 2.9375 -4.171875 2.9375q-0.953125 0 -1.53125 -0.671875q-0.5625 -0.671875 -0.578125 -2.265625zm0 -1.265625l0 -6.828125q-2.953125 1.171875 -3.8125 1.671875q-1.546875 0.859375 -2.21875 1.796875q-0.65625 0.9375 -0.65625 2.046875q0 1.40625 0.84375 2.34375q0.84375 0.921875 1.9375 0.921875q1.484375 0 3.90625 -1.953125z" fill-rule="nonzero"></path><path fill="#000000" d="m610.5991 346.22455q-0.359375 1.875 -1.40625 3.515625q-1.03125 1.640625 -2.46875 1.640625q-2.59375 0 -2.59375 -4.75l0 -8.125l-0.09375 0l-7.828125 12.4375l-3.921875 0l11.515625 -18.125q0 -0.15625 0.015625 -0.625q0.03125 -0.484375 0.03125 -0.8125q0 -4.640625 -2.359375 -4.640625q-1.96875 0 -2.53125 2.609375l-0.828125 -0.28125q0.71875 -5.25 3.515625 -5.25q1.078125 0 1.78125 0.59375q0.703125 0.578125 1.015625 1.640625q0.328125 1.046875 0.4375 1.96875q0.125 0.921875 0.15625 2.203125l0.40625 13.71875q0.046875 1.40625 0.140625 2.25q0.09375 0.828125 0.546875 1.546875q0.46875 0.71875 1.28125 0.71875q1.078125 0 1.6875 -1.078125q0.625 -1.078125 0.625 -1.484375l0.875 0.328125z" fill-rule="nonzero"></path><path fill="#000000" d="m625.8378 363.66205l0 2.28125l-12.78125 0q-0.015625 -0.859375 0.28125 -1.640625q0.484375 -1.3125 1.5625 -2.578125q1.078125 -1.265625 3.109375 -2.921875q3.140625 -2.59375 4.25 -4.09375q1.109375 -1.515625 1.109375 -2.859375q0 -1.40625 -1.015625 -2.375q-1.0 -0.96875 -2.625 -0.96875q-1.703125 0 -2.734375 1.03125q-1.03125 1.015625 -1.046875 2.84375l-2.4375 -0.25q0.25 -2.734375 1.875 -4.15625q1.640625 -1.4375 4.40625 -1.4375q2.78125 0 4.390625 1.546875q1.625 1.53125 1.625 3.8125q0 1.171875 -0.484375 2.296875q-0.46875 1.109375 -1.5625 2.359375q-1.09375 1.234375 -3.65625 3.390625q-2.140625 1.796875 -2.75 2.4375q-0.59375 0.640625 -1.0 1.28125l9.484375 0z" fill-rule="nonzero"></path><path fill="#000000" d="m655.07666 323.14642q0.84375 0 1.421875 0.59375q0.59375 0.578125 0.59375 1.421875q0 0.8125 -0.59375 1.40625q-0.578125 0.578125 -1.421875 0.578125q-0.8125 0 -1.40625 -0.578125q-0.578125 -0.59375 -0.578125 -1.40625q0 -0.84375 0.578125 -1.421875q0.59375 -0.59375 1.40625 -0.59375zm1.6875 9.375l0 18.015625q0 4.59375 -1.953125 6.8125q-1.953125 2.234375 -5.078125 2.234375q-1.78125 0 -2.640625 -0.65625q-0.859375 -0.640625 -0.859375 -1.328125q0 -0.671875 0.484375 -1.171875q0.46875 -0.484375 1.109375 -0.484375q0.515625 0 1.03125 0.25q0.34375 0.140625 1.28125 0.984375q0.953125 0.859375 1.59375 0.859375q0.46875 0 0.921875 -0.359375q0.453125 -0.359375 0.65625 -1.21875q0.21875 -0.84375 0.21875 -3.671875l0 -12.75q0 -2.9375 -0.171875 -3.78125q-0.140625 -0.640625 -0.4375 -0.890625q-0.28125 -0.25 -0.796875 -0.25q-0.546875 0 -1.328125 0.296875l-0.265625 -0.703125l5.390625 -2.1875l0.84375 0zm16.457031 0l0 6.09375l-0.640625 0q-0.75 -2.875 -1.90625 -3.90625q-1.15625 -1.03125 -2.953125 -1.03125q-1.375 0 -2.21875 0.71875q-0.828125 0.71875 -0.828125 1.609375q0 1.09375 0.625 1.875q0.59375 0.796875 2.453125 1.6875l2.859375 1.390625q3.953125 1.9375 3.953125 5.09375q0 2.453125 -1.84375 3.953125q-1.84375 1.484375 -4.125 1.484375q-1.640625 0 -3.75 -0.59375q-0.640625 -0.1875 -1.0625 -0.1875q-0.4375 0 -0.703125 0.515625l-0.640625 0l0 -6.390625l0.640625 0q0.546875 2.734375 2.09375 4.125q1.546875 1.375 3.453125 1.375q1.359375 0 2.203125 -0.78125q0.84375 -0.796875 0.84375 -1.90625q0 -1.359375 -0.953125 -2.265625q-0.9375 -0.921875 -3.765625 -2.328125q-2.828125 -1.40625 -3.71875 -2.546875q-0.875 -1.109375 -0.875 -2.8125q0 -2.203125 1.515625 -3.6875q1.515625 -1.484375 3.921875 -1.484375q1.046875 0 2.546875 0.453125q1.0 0.296875 1.328125 0.296875q0.3125 0 0.484375 -0.140625q0.1875 -0.140625 0.421875 -0.609375l0.640625 0zm12.753906 0q4.0625 0 6.53125 3.09375q2.078125 2.625 2.078125 6.046875q0 2.40625 -1.15625 4.875q-1.140625 2.453125 -3.171875 3.703125q-2.015625 1.25 -4.5 1.25q-4.03125 0 -6.421875 -3.21875q-2.015625 -2.71875 -2.015625 -6.09375q0 -2.46875 1.21875 -4.890625q1.234375 -2.4375 3.21875 -3.59375q2.0 -1.171875 4.21875 -1.171875zm-0.609375 1.265625q-1.03125 0 -2.078125 0.625q-1.046875 0.609375 -1.6875 2.15625q-0.640625 1.546875 -0.640625 3.96875q0 3.90625 1.546875 6.734375q1.5625 2.828125 4.09375 2.828125q1.890625 0 3.125 -1.5625q1.234375 -1.5625 1.234375 -5.375q0 -4.765625 -2.046875 -7.5q-1.390625 -1.875 -3.546875 -1.875zm27.546875 -0.734375l0 10.84375q0 3.09375 0.140625 3.796875q0.15625 0.6875 0.46875 0.96875q0.328125 0.265625 0.75 0.265625q0.609375 0 1.375 -0.328125l0.265625 0.6875l-5.34375 2.203125l-0.875 0l0 -3.796875q-2.3125 2.5 -3.53125 3.15625q-1.203125 0.640625 -2.546875 0.640625q-1.5 0 -2.609375 -0.859375q-1.109375 -0.875 -1.546875 -2.234375q-0.421875 -1.375 -0.421875 -3.875l0 -8.0q0 -1.265625 -0.28125 -1.75q-0.265625 -0.484375 -0.796875 -0.75q-0.53125 -0.265625 -1.9375 -0.25l0 -0.71875l6.265625 0l0 11.96875q0 2.5 0.859375 3.28125q0.875 0.78125 2.109375 0.78125q0.84375 0 1.90625 -0.515625q1.0625 -0.53125 2.53125 -2.015625l0 -10.140625q0 -1.53125 -0.5625 -2.0625q-0.5625 -0.53125 -2.3125 -0.578125l0 -0.71875l6.09375 0zm13.390625 0l8.421875 0l0 0.71875l-0.546875 0q-0.765625 0 -1.171875 0.375q-0.390625 0.375 -0.390625 1.0q0 0.671875 0.40625 1.609375l4.171875 9.890625l4.171875 -10.25q0.453125 -1.09375 0.453125 -1.671875q0 -0.265625 -0.15625 -0.4375q-0.21875 -0.296875 -0.546875 -0.40625q-0.328125 -0.109375 -1.34375 -0.109375l0 -0.71875l5.828125 0l0 0.71875q-1.015625 0.078125 -1.40625 0.40625q-0.671875 0.59375 -1.21875 1.953125l-6.359375 15.359375l-0.796875 0l-6.390625 -15.09375q-0.421875 -1.0625 -0.8125 -1.515625q-0.390625 -0.46875 -1.0 -0.78125q-0.328125 -0.171875 -1.3125 -0.328125l0 -0.71875zm23.9375 6.734375q-0.03125 3.984375 1.921875 6.25q1.953125 2.265625 4.59375 2.265625q1.765625 0 3.0625 -0.96875q1.296875 -0.96875 2.171875 -3.3125l0.609375 0.390625q-0.40625 2.6875 -2.390625 4.890625q-1.96875 2.1875 -4.9375 2.1875q-3.21875 0 -5.515625 -2.5q-2.296875 -2.515625 -2.296875 -6.765625q0 -4.578125 2.34375 -7.140625q2.359375 -2.578125 5.921875 -2.578125q3.0 0 4.9375 1.984375q1.9375 1.984375 1.9375 5.296875l-12.359375 0zm0 -1.125l8.28125 0q-0.109375 -1.71875 -0.421875 -2.421875q-0.484375 -1.09375 -1.453125 -1.71875q-0.96875 -0.625 -2.015625 -0.625q-1.625 0 -2.90625 1.265625q-1.28125 1.25 -1.484375 3.5zm20.894531 -15.5l0 23.734375q0 1.6875 0.234375 2.234375q0.25 0.546875 0.75 0.828125q0.515625 0.28125 1.90625 0.28125l0 0.703125l-8.765625 0l0 -0.703125q1.21875 0 1.671875 -0.25q0.453125 -0.265625 0.703125 -0.84375q0.25 -0.59375 0.25 -2.25l0 -16.25q0 -3.03125 -0.140625 -3.71875q-0.125 -0.6875 -0.4375 -0.9375q-0.296875 -0.265625 -0.765625 -0.265625q-0.5 0 -1.28125 0.3125l-0.34375 -0.6875l5.34375 -2.1875l0.875 0zm10.253906 0l0 17.796875l4.546875 -4.140625q1.453125 -1.328125 1.6875 -1.671875q0.15625 -0.234375 0.15625 -0.46875q0 -0.390625 -0.328125 -0.671875q-0.328125 -0.296875 -1.0625 -0.328125l0 -0.625l7.765625 0l0 0.625q-1.59375 0.03125 -2.65625 0.484375q-1.0625 0.453125 -2.34375 1.609375l-4.578125 4.234375l4.578125 5.796875q1.921875 2.40625 2.578125 3.046875q0.9375 0.921875 1.640625 1.1875q0.5 0.203125 1.703125 0.203125l0 0.703125l-8.6875 0l0 -0.703125q0.734375 -0.015625 1.0 -0.21875q0.265625 -0.21875 0.265625 -0.578125q0 -0.453125 -0.78125 -1.453125l-5.484375 -7.015625l0 5.9375q0 1.75 0.234375 2.296875q0.25 0.546875 0.703125 0.78125q0.453125 0.234375 1.953125 0.25l0 0.703125l-9.109375 0l0 -0.703125q1.375 0 2.0625 -0.328125q0.40625 -0.21875 0.625 -0.671875q0.28125 -0.640625 0.28125 -2.21875l0 -16.296875q0 -3.109375 -0.140625 -3.796875q-0.125 -0.6875 -0.4375 -0.953125q-0.3125 -0.265625 -0.828125 -0.265625q-0.40625 0 -1.21875 0.328125l-0.34375 -0.6875l5.3125 -2.1875l0.90625 0zm17.71875 16.625q-0.03125 3.984375 1.921875 6.25q1.953125 2.265625 4.59375 2.265625q1.765625 0 3.0625 -0.96875q1.296875 -0.96875 2.171875 -3.3125l0.609375 0.390625q-0.40625 2.6875 -2.390625 4.890625q-1.96875 2.1875 -4.9375 2.1875q-3.21875 0 -5.515625 -2.5q-2.296875 -2.515625 -2.296875 -6.765625q0 -4.578125 2.34375 -7.140625q2.359375 -2.578125 5.921875 -2.578125q3.0 0 4.9375 1.984375q1.9375 1.984375 1.9375 5.296875l-12.359375 0zm0 -1.125l8.28125 0q-0.109375 -1.71875 -0.421875 -2.421875q-0.484375 -1.09375 -1.453125 -1.71875q-0.96875 -0.625 -2.015625 -0.625q-1.625 0 -2.90625 1.265625q-1.28125 1.25 -1.484375 3.5zm9.765625 -14.875l-5.75 6.75l-0.671875 0l2.046875 -6.75l4.375 0z" fill-rule="nonzero"></path><path fill="#1155cc" d="m145.19685 85.74803c0 -8.488663 37.66449 -15.370079 84.12598 -15.370079l0 0c46.461502 0 84.12599 6.8814163 84.12599 15.370079l0 0c0 8.488663 -37.66449 15.370079 -84.12599 15.370079l0 0c-46.461487 0 -84.12598 -6.8814163 -84.12598 -15.370079z" fill-rule="nonzero"></path><path stroke="#1155cc" stroke-width="1.0" stroke-linejoin="round" stroke-linecap="butt" d="m145.19685 85.74803c0 -8.488663 37.66449 -15.370079 84.12598 -15.370079l0 0c46.461502 0 84.12599 6.8814163 84.12599 15.370079l0 0c0 8.488663 -37.66449 15.370079 -84.12599 15.370079l0 0c-46.461487 0 -84.12598 -6.8814163 -84.12598 -15.370079z" fill-rule="nonzero"></path><path fill="#1155cc" d="m831.04987 561.59845l0 0c0 -45.217773 6.3032837 -81.874054 14.078735 -81.874054l0 0c3.7339478 0 7.3148804 8.626007 9.9552 23.980347c2.6402588 15.35434 4.123535 36.17935 4.123535 57.893707l0 0c0 45.217773 -6.3032837 81.87396 -14.078735 81.87396l0 0c-3.7338867 0 -7.3148804 -8.625977 -9.955139 -23.980286c-2.6403198 -15.35437 -4.123596 -36.179382 -4.123596 -57.893677z" fill-rule="nonzero"></path><path stroke="#1155cc" stroke-width="1.0" stroke-linejoin="round" stroke-linecap="butt" d="m831.04987 561.59845l0 0c0 -45.217773 6.3032837 -81.874054 14.078735 -81.874054l0 0c3.7339478 0 7.3148804 8.626007 9.9552 23.980347c2.6402588 15.35434 4.123535 36.17935 4.123535 57.893707l0 0c0 45.217773 -6.3032837 81.87396 -14.078735 81.87396l0 0c-3.7338867 0 -7.3148804 -8.625977 -9.955139 -23.980286c-2.6403198 -15.35437 -4.123596 -36.179382 -4.123596 -57.893677z" fill-rule="nonzero"></path><path fill="#1155cc" d="m127.68767 607.0236l0 0c0 -27.127197 21.793503 -49.118103 48.677155 -49.118103l0 0c12.909988 0 25.291214 5.1749268 34.419968 14.386353c9.128738 9.211426 14.257202 21.704834 14.257202 34.73175l0 0c0 27.127197 -21.793503 49.118103 -48.67717 49.118103l0 0c-26.883652 0 -48.677155 -21.990906 -48.677155 -49.118103z" fill-rule="nonzero"></path><path stroke="#1155cc" stroke-width="1.0" stroke-linejoin="round" stroke-linecap="butt" d="m127.68767 607.0236l0 0c0 -27.127197 21.793503 -49.118103 48.677155 -49.118103l0 0c12.909988 0 25.291214 5.1749268 34.419968 14.386353c9.128738 9.211426 14.257202 21.704834 14.257202 34.73175l0 0c0 27.127197 -21.793503 49.118103 -48.67717 49.118103l0 0c-26.883652 0 -48.677155 -21.990906 -48.677155 -49.118103z" fill-rule="nonzero"></path><path fill="#1155cc" d="m662.7769 190.46457l0 0c0 -6.888336 5.739197 -12.472443 12.818909 -12.472443l0 0c3.3997803 0 6.6602783 1.3140564 9.064331 3.6530914c2.4039917 2.339035 3.7545166 5.5114594 3.7545166 8.819351l0 0c0 6.888336 -5.739197 12.472443 -12.818848 12.472443l0 0c-7.079712 0 -12.818909 -5.5841064 -12.818909 -12.472443z" fill-rule="nonzero"></path><path stroke="#1155cc" stroke-width="1.0" stroke-linejoin="round" stroke-linecap="butt" d="m662.7769 190.46457l0 0c0 -6.888336 5.739197 -12.472443 12.818909 -12.472443l0 0c3.3997803 0 6.6602783 1.3140564 9.064331 3.6530914c2.4039917 2.339035 3.7545166 5.5114594 3.7545166 8.819351l0 0c0 6.888336 -5.739197 12.472443 -12.818848 12.472443l0 0c-7.079712 0 -12.818909 -5.5841064 -12.818909 -12.472443z" fill-rule="nonzero"></path></g></svg>

